<svg enable-background="new 0 0 1000 719.525" height="719.525" viewBox="0 0 1000 719.525" width="1000" xmlns="http://www.w3.org/2000/svg"><path d="m60.337 0c-33.279 0-60.337 27.021-60.337 60.212v599.101c0 33.191 27.058 60.212 60.337 60.212h879.326c33.265 0 60.337-27.021 60.337-60.212v-599.101c0-33.191-27.072-60.212-60.337-60.212" fill="#fff"/><path d="m980.371 60.212c0-22.388-18.263-40.575-40.699-40.575h-879.335c-22.455 0-40.708 18.187-40.708 40.575v599.101c0 22.36 18.253 40.573 40.708 40.573h879.335c22.437 0 40.699-18.213 40.699-40.573" fill="#0033a0"/><path d="m728.145 505.327 14.6-29.193c1.435 23.854 11.786 40.574 24.567 52.339-6 2.899-10.748 7.604-13.544 13.538-.165.354-.327.726-.488 1.099l-3.784 9.513m-260.846-24.581c-3.16 3.152-6.067 3.521-7.983 3.521-3.418 0-6.192-1.168-8.693-3.671-4.158-4.156-6.741-11.2-6.741-18.408 0-11.186 7.495-21.766 15.435-21.766 2.465 0 5.32 1.452 7.843 3.979 4.381 4.364 6.992 11.023 6.992 17.786-.001 7.225-2.621 14.344-6.853 18.559zm398.156-47.691c5.71-3.448 10.217-8.765 12.808-15.467l11.121-28.62c.049-.131.095-.25.141-.366 4.858-13.26 1.752-27.942-7.709-36.506-13.187-11.944-37.293-19.995-59.978-19.995-27.731 0-54.887 11.262-74.485 30.854-.836.83-1.636 1.673-2.417 2.533-.665-4.663-2.252-9.027-4.768-12.903-5.297-8.196-14.248-12.979-23.941-12.774.126-.012.266-.012.406-.012h-40.906c-9.687 0-21.644 4.614-28.577 14.887-1.306-2.265-2.921-4.469-4.926-6.467-5.423-5.418-12.702-8.42-20.496-8.42h-41.55c-8.036 0-15.574 3.121-21.226 8.776-6.171 6.171-9.864 15.241-9.864 24.299v5.871c-3.351-4.363-6.964-8.521-10.87-12.457-21.759-21.753-49.781-33.741-78.901-33.741-29.439 0-57.785 12.135-79.811 34.156-24.772 24.769-38.4 58.698-38.4 95.485 0 5.963.422 11.976 1.227 18.012-.561-.046-1.124-.104-1.693-.104h-17.891v-104.946c0-12.921-5.261-20.893-9.663-25.287-4.588-4.59-12.986-10.064-26.984-10.064h-28.138c-12.119 0-21.774 3.521-28.686 10.418-2.679 2.68-5.615 6.672-7.612 12.177-1.465-1.715-2.969-3.387-4.559-4.986-11.365-11.365-24.49-17.608-36.979-17.608h-74.449c-12.503 0-24.23 4.821-33.006 13.613-9.174 9.177-14.435 21.812-14.435 34.672v151.986c0 11.811 4.61 22.919 12.978 31.3 8.834 8.832 20.783 13.702 33.649 13.702h75.263c16.15 0 31.889-8.746 44.082-22.345 2.057 4.022 4.698 7.739 7.916 10.962 7.295 7.297 16.479 11.334 25.837 11.334h84.207c16.757 0 29.898-15.167 33.457-31.207 20.294 22.876 48.804 38.3 83.675 38.327 29.951.016 57.119-11.276 78.561-32.688 4.041-4.054 7.771-8.405 11.225-12.965v4.056c0 .132.007.266.007.443.452 20.38 14.315 34.082 34.522 34.082h35.168c13.185 0 23.658-6.323 29.164-16.516 7.718 10.949 17.535 16.516 29.254 16.516h40.406c7.643 0 15.223-3.701 20.838-9.814 12.604 8.881 31.857 17.005 71.117 17.005 50.187 0 89.494-42.469 89.494-96.706 0-26.457-11.75-47.944-33.603-62.502z" fill="#fff"/><path d="m918.822 287.475s-51.57-171.46-51.609-171.564c-4.966-16.16-20.756-27.451-38.383-27.451h-46.482c-17.636 0-33.421 11.292-38.423 27.555 0 0-10.055 33.384-21.279 70.718-1.176-1.628-2.405-3.166-3.797-4.558-2.46-2.472-5.222-4.483-8.179-6.171 12.5-11.469 12.849-30.01 6.849-41.656-8.473-16.484-35.316-54.382-103.689-54.382-35.01 0-69.495 14.429-94.63 39.54-3.86 3.863-7.422 7.947-10.743 12.193v-10.521c0-8.139-3.594-16.202-10.143-22.759-6.342-6.318-14.205-9.959-21.598-9.959h-92.768c-10.15 0-19.688 3.937-26.842 11.1-5.062 5.06-8.68 11.498-10.477 18.231-3.396-15.198-17.941-28.161-33.421-29.285-.481-.031-.947-.046-1.428-.046h-50.4c-5.838 0-25.519 2.043-33.924 28.397-.052.164-.096.312-.141.504l-3.137 10.757-3.168-10.815c-.052-.165-.088-.296-.133-.446-8.404-26.354-28.101-28.397-33.924-28.397h-50.4c-.473 0-.961.015-1.436.046-16.15 1.184-31.327 15.226-33.826 31.296-.031.177-.061.384-.098.577 0 0-21.42 171.64-21.391 171.402-2.33 16.899 2.789 26.903 7.495 32.304 5.423 6.201 12.978 9.65 21.28 9.65h39.436c12.238 0 22.655-8.51 28.767-18.07 7.872 15.421 20.236 18.07 27.68 18.07h39.421c7.436 0 19.82-2.665 27.672-18.055 6.111 9.544 16.528 18.055 28.773 18.055h39.421c8.079 0 15.442-3.271 20.821-9.177 7.162 5.861 15.834 9.177 24.355 9.177h99.967c19.316 0 31.164-14.873 32.146-29.908.855.918 1.697 1.835 2.582 2.708 25.123 25.127 58.741 38.962 94.643 38.962 31.91 0 58.961-13.14 79.079-31.505 1.062 2.635 2.447 5.105 4.126 7.385 5.801 7.843 14.555 12.357 24.018 12.357h38.288c22.462 0 29.871-19.712 33.021-28.117.195-.503.415-1.095.639-1.672h24.295c.238.577.451 1.168.646 1.672 3.156 8.405 10.56 28.117 33.027 28.117h38.275c9.461 0 18.214-4.514 24.019-12.357 6.855-9.25 8.766-21.96 5.128-33.902" fill="#fff"/><g fill="#ed1c2e"><path d="m246.53 122.82c3.61-11.289 9.98-14.737 15.219-14.737h50.401c6.703.504 14.725 7.384 15.871 14.737l21.427 171.64c1.887 13.731-3.107 19.635-9.33 19.635h-39.422c-6.384 0-13.916-9.173-14.9-15.063l-9.16-68.558-19.629 69.549c-2.457 8.849-6.223 14.072-12.756 14.072h-39.421c-6.548 0-10.306-5.223-12.763-14.072l-19.637-69.549-9.168 68.558c-.977 5.89-8.5 15.063-14.879 15.063h-39.436c-6.223 0-11.209-5.904-9.329-19.635l21.442-171.64c1.138-7.353 9.158-14.233 15.863-14.737h50.4c5.23 0 11.615 3.449 15.204 14.737l22.094 75.426"/><path d="m384.319 108.083c-12.601 0-18.985 11.63-18.985 19.001v167.702c0 8.671 9.825 19.31 19.962 19.31h99.965c9.664 0 12.602-8.02 12.602-12.28v-31.253c0-6.215-6.379-12.43-11.941-12.43h-53.502c-4.75 0-7.858-4.262-7.858-6.052v-8.347c0-3.449 4.101-6.229 6.874-6.229h36.322c5.889 0 8.679-4.573 8.679-8.006v-35.989c0-4.26-4.093-8.67-8.347-8.67h-35.514c-4.729 0-7.852-3.449-7.852-6.067v-8.495c0-3.286 3.759-6.054 7.852-6.054h44.51c6.216 0 12.113-7.693 12.113-15.063l-.008-27.982c0-6.378-7.843-13.096-12.105-13.096"/><path d="m614.202 99.604c-59.73 0-114.023 48.403-114.023 114.564 0 53.938 45.474 111.708 114.451 111.708 58.905 0 98.176-55.641 98.176-87.87 0 0-.436-11.171-.436-21.221 0-13.524-5.899-26.175-21.385-26.175h-79.842c-10.473 0-18.035 8.951-18.035 16.586v22.257c0 7.843 7.995 15.479 19.348 15.479l33.271-.06c-3.876 5.4-12.77 15.064-31.525 15.064-23.566 0-44.673-19.149-44.673-46.643 0-28.943 20.862-44.941 44.673-44.941 20.508 0 27.606 8.954 31.852 12.993 4.706 4.469 11.252 5.446 19.645 1.155l32.057-20.94c5.242-4.808 5.063-13.585 2.68-18.215-2.681-5.192-21.606-43.741-86.234-43.741"/><path d="m802.185 191.868-12.106 37.305c-1.136 3.107.824 7.857 6.396 7.857h18.97c5.561 0 7.523-4.75 6.385-7.857l-12.113-37.305c-.488-1.953-.977-4.099-3.756-4.099-2.784 0-3.278 2.146-3.776 4.099m27.011-83.785c8.008 0 17.011 5.106 19.623 13.584l51.563 171.49c3.253 10.625-1.983 20.938-10.337 20.938h-38.272c-17.347 0-11.95-29.787-27.829-29.787h-35.99c-15.875 0-10.462 29.787-27.809 29.787h-38.291c-8.347 0-13.577-10.313-10.336-20.938l51.575-171.49c2.612-8.478 11.603-13.584 19.623-13.584z"/><path d="m183.477 526.324h-21.598c-2.292 0-4.587 1.483-4.587 3.774v21.086c0 2.148 1.636 3.79 4.426 3.79h20.125c11.778-1.641 10.802-26.52 1.634-28.65m-6.223-68.365h-15.375c-2.292 0-4.587 1.465-4.587 3.745v17.847c0 2.112 1.636 3.757 4.426 3.757h13.902c12.274-.814 10.965-24.21 1.634-25.349zm24.218-51.23c19.148 0 43.038 29.627 43.038 57.271 0 26.514-11.127 38.117-17.024 42.216 4.426 2.621 21.761 14.398 21.761 43.521 0 33.546-25.519 62.993-47.774 62.993h-75.263c-14.894 0-26.998-10.966-26.998-25.364v-151.987c0-13.587 10.484-28.65 27.813-28.65z"/><path d="m279.307 406.729c-9.604 0-18.985 3.033-18.985 16.797v166.474c0 12.845 10.041 22.672 18.985 22.672h84.207c7.636 0 14.835-10.907 14.835-20.068v-27.509c0-10.004-7.422-18.067-16.367-18.067h-30.327c-4.358 0-7.191-2.648-7.191-5.268v-119.314c0-5.683-1.532-15.717-17.019-15.717"/><path d="m480.659 468.083c-20.339 0-35.07 20.789-35.07 41.401 0 20.614 12.979 41.7 35.07 41.7 21.043 0 34.463-20.747 34.463-41.7 0-22.431-16.187-41.401-34.463-41.401m97.678 41.401c0 57.148-38.996 110.394-97.678 110.335-64.363-.061-98.582-61.695-98.582-110.335 0-63.051 46.664-110.006 98.582-110.006 51.926 0 97.678 47.175 97.678 110.006z"/><path d="m601.519 406.729c-8.02 0-11.45 8.021-11.45 13.44v177.673c.159 7.371 3.431 14.888 14.893 14.888h35.166c7.199 0 13.739-3.775 13.739-14.399v-48.594c0-3.448 3.617-4.736 5.57-.83l22.906 50.728c2.124 3.937 6.708 13.096 16.205 13.096h40.406c4.748 0 12.757-7.694 8.508-16.855l-37.949-84.096c-1.803-3.271-3.286-6.879-.656-11.792l35.173-70.351c6.223-13.093 1.798-23.084-6.052-22.907h-40.906c-4.742 0-10.804 2.796-13.099 7.532l-29.768 62.995v-53.821c0-6.892-2.454-16.706-11.133-16.706"/><path d="m889.979 413.922c-8.677-7.844-27.494-14.887-46.8-14.887-41.884 0-80.986 32.242-80.986 71.342 0 55.623 60.051 63.479 68.053 68.232 7.935 4.688 6.22 16.01-8.661 16.688-7.043.33-21.006-3.491-30.609-8.179-8.008-3.925-16.676-2.622-19.459 3.253l-11.615 29.121c-2.621 7.709.879 18.988 6.702 23.572 6.223 4.913 18.823 16.87 64.302 16.87 37.314 0 69.874-31.577 69.874-77.083 0-32.063-22.098-48.255-45.981-56.275-21.836-7.324-30.918-11.615-30.918-18.494 0-8.008 7.85-11.944 17.829-11.944 12.104 0 21.234 4.943 22.906 6.378 3.604 3.125 13.09 4.59 16.688-4.718l11.133-28.65c2.44-6.702.286-12.708-2.458-15.226"/></g><path d="m913.249 129.362v-12.341h1.929l2.021.133c1.407.088 2.45.267 3.138.563 1.251.475 2.117 1.332 2.569 2.559.28.727.482 2.161.567 4.264.062 2.1.263 3.699.534 4.823h8.658l-.299-.977c-.141-.355-.208-.696-.244-1.036-.043-.354-.073-.681-.073-1.021v-3.122c0-3.551-1.014-6.157-3.046-7.83-1.117-.902-2.762-1.567-4.95-2.026 2.404-.25 4.4-1.035 6.043-2.353 1.642-1.331 2.456-3.462 2.456-6.392 0-3.847-1.553-6.63-4.666-8.345-1.831-.992-4.114-1.599-6.897-1.791-.481-.031-2.871-.06-7.214-.073-4.315 0-7.575-.031-9.724-.031v34.997m19.532-24.167c0 1.939-.593 3.345-1.782 4.204-1.203.844-2.869 1.287-4.999 1.287h-3.553v-10.21h2.234c2.258 0 4.04.252 5.292.74 1.868.74 2.808 2.072 2.808 3.979zm25.903 6.675c0-8.716-3.082-16.16-9.271-22.315-6.158-6.171-13.58-9.247-22.296-9.247-8.311 0-15.534 2.855-21.717 8.566-6.55 6.098-9.833 13.762-9.833 22.996 0 8.865 3.045 16.352 9.112 22.434 6.092 6.067 13.563 9.116 22.438 9.116 8.605 0 15.948-2.975 22.101-8.908 6.293-6.128 9.466-13.675 9.466-22.642zm-31.509-26.206c7.139 0 13.242 2.634 18.351 7.901 5.017 5.165 7.553 11.261 7.553 18.305 0 7.222-2.536 13.422-7.59 18.601-5.078 5.15-11.175 7.724-18.313 7.724-7.184 0-13.281-2.559-18.381-7.678-5.072-5.121-7.617-11.35-7.617-18.646 0-7.073 2.478-13.169 7.525-18.305 5.071-5.269 11.235-7.902 18.472-7.902z" fill="#fff"/></svg>