<?xml version="1.0" encoding="utf-8"?>
<!-- Generator: Adobe Illustrator 16.0.0, SVG Export Plug-In . SVG Version: 6.00 Build 0)  -->
<!DOCTYPE svg PUBLIC "-//W3C//DTD SVG 1.1//EN" "http://www.w3.org/Graphics/SVG/1.1/DTD/svg11.dtd">
<svg version="1.1" id="Layer_1" xmlns="http://www.w3.org/2000/svg" xmlns:xlink="http://www.w3.org/1999/xlink" x="0px" y="0px"
	 width="1000px" height="719.525px" viewBox="0 0 1000 719.525" enable-background="new 0 0 1000 719.525" xml:space="preserve">
<g>
	<path fill="#FFFFFF" d="M60.337,0C27.058,0,0,27.021,0,60.212v599.101c0,33.191,27.058,60.212,60.337,60.212h879.326
		c33.265,0,60.337-27.021,60.337-60.212V60.212C1000,27.021,972.928,0,939.663,0"/>
	<path fill="#0033A0" d="M980.371,60.212c0-22.388-18.263-40.575-40.699-40.575H60.337c-22.455,0-40.708,18.187-40.708,40.575
		v599.101c0,22.36,18.253,40.573,40.708,40.573h879.335c22.437,0,40.699-18.213,40.699-40.573"/>
	<path fill="#FFFFFF" d="M728.145,505.327l14.6-29.193c1.435,23.854,11.786,40.574,24.567,52.339
		c-6,2.899-10.748,7.604-13.544,13.538c-0.165,0.354-0.327,0.726-0.488,1.099l-3.784,9.513 M488.65,528.042
		c-3.16,3.152-6.067,3.521-7.983,3.521c-3.418,0-6.192-1.168-8.693-3.671c-4.158-4.156-6.741-11.2-6.741-18.408
		c0-11.186,7.495-21.766,15.435-21.766c2.465,0,5.32,1.452,7.843,3.979c4.381,4.364,6.992,11.023,6.992,17.786
		C495.502,516.708,492.882,523.827,488.65,528.042z M886.806,480.351c5.71-3.448,10.217-8.765,12.808-15.467l11.121-28.62
		c0.049-0.131,0.095-0.25,0.141-0.366c4.858-13.26,1.752-27.942-7.709-36.506c-13.187-11.944-37.293-19.995-59.978-19.995
		c-27.731,0-54.887,11.262-74.485,30.854c-0.836,0.83-1.636,1.673-2.417,2.533c-0.665-4.663-2.252-9.027-4.768-12.903
		c-5.297-8.196-14.248-12.979-23.941-12.774c0.126-0.012,0.266-0.012,0.406-0.012h-40.906c-9.687,0-21.644,4.614-28.577,14.887
		c-1.306-2.265-2.921-4.469-4.926-6.467c-5.423-5.418-12.702-8.42-20.496-8.42h-41.55c-8.036,0-15.574,3.121-21.226,8.776
		c-6.171,6.171-9.864,15.241-9.864,24.299v5.871c-3.351-4.363-6.964-8.521-10.87-12.457c-21.759-21.753-49.781-33.741-78.901-33.741
		c-29.439,0-57.785,12.135-79.811,34.156c-24.772,24.769-38.4,58.698-38.4,95.485c0,5.963,0.422,11.976,1.227,18.012
		c-0.561-0.046-1.124-0.104-1.693-0.104H344.1V422.446c0-12.921-5.261-20.893-9.663-25.287c-4.588-4.59-12.986-10.064-26.984-10.064
		h-28.138c-12.119,0-21.774,3.521-28.686,10.418c-2.679,2.68-5.615,6.672-7.612,12.177c-1.465-1.715-2.969-3.387-4.559-4.986
		c-11.365-11.365-24.49-17.608-36.979-17.608H127.03c-12.503,0-24.23,4.821-33.006,13.613c-9.174,9.177-14.435,21.812-14.435,34.672
		v151.986c0,11.811,4.61,22.919,12.978,31.3c8.834,8.832,20.783,13.702,33.649,13.702h75.263c16.15,0,31.889-8.746,44.082-22.345
		c2.057,4.022,4.698,7.739,7.916,10.962c7.295,7.297,16.479,11.334,25.837,11.334h84.207c16.757,0,29.898-15.167,33.457-31.207
		c20.294,22.876,48.804,38.3,83.675,38.327c29.951,0.016,57.119-11.276,78.561-32.688c4.041-4.054,7.771-8.405,11.225-12.965v4.056
		c0,0.132,0.007,0.266,0.007,0.443c0.452,20.38,14.315,34.082,34.522,34.082h35.168c13.185,0,23.658-6.323,29.164-16.516
		c7.718,10.949,17.535,16.516,29.254,16.516h40.406c7.643,0,15.223-3.701,20.838-9.814c12.604,8.881,31.857,17.005,71.117,17.005
		c50.187,0,89.494-42.469,89.494-96.706C920.409,516.396,908.659,494.909,886.806,480.351z"/>
	<path fill="#FFFFFF" d="M918.822,287.475c0,0-51.57-171.46-51.609-171.564c-4.966-16.16-20.756-27.451-38.383-27.451h-46.482
		c-17.636,0-33.421,11.292-38.423,27.555c0,0-10.055,33.384-21.279,70.718c-1.176-1.628-2.405-3.166-3.797-4.558
		c-2.46-2.472-5.222-4.483-8.179-6.171c12.5-11.469,12.849-30.01,6.849-41.656c-8.473-16.484-35.316-54.382-103.689-54.382
		c-35.01,0-69.495,14.429-94.63,39.54c-3.86,3.863-7.422,7.947-10.743,12.193v-10.521c0-8.139-3.594-16.202-10.143-22.759
		c-6.342-6.318-14.205-9.959-21.598-9.959h-92.768c-10.15,0-19.688,3.937-26.842,11.1c-5.062,5.06-8.68,11.498-10.477,18.231
		c-3.396-15.198-17.941-28.161-33.421-29.285c-0.481-0.031-0.947-0.046-1.428-0.046H261.38c-5.838,0-25.519,2.043-33.924,28.397
		c-0.052,0.164-0.096,0.312-0.141,0.504l-3.137,10.757l-3.168-10.815c-0.052-0.165-0.088-0.296-0.133-0.446
		c-8.404-26.354-28.101-28.397-33.924-28.397h-50.4c-0.473,0-0.961,0.015-1.436,0.046c-16.15,1.184-31.327,15.226-33.826,31.296
		c-0.031,0.177-0.061,0.384-0.098,0.577c0,0-21.42,171.64-21.391,171.402c-2.33,16.899,2.789,26.903,7.495,32.304
		c5.423,6.201,12.978,9.65,21.28,9.65h39.436c12.238,0,22.655-8.51,28.767-18.07c7.872,15.421,20.236,18.07,27.68,18.07h39.421
		c7.436,0,19.82-2.665,27.672-18.055c6.111,9.544,16.528,18.055,28.773,18.055h39.421c8.079,0,15.442-3.271,20.821-9.177
		c7.162,5.861,15.834,9.177,24.355,9.177h99.967c19.316,0,31.164-14.873,32.146-29.908c0.855,0.918,1.697,1.835,2.582,2.708
		c25.123,25.127,58.741,38.962,94.643,38.962c31.91,0,58.961-13.14,79.079-31.505c1.062,2.635,2.447,5.105,4.126,7.385
		c5.801,7.843,14.555,12.357,24.018,12.357h38.288c22.462,0,29.871-19.712,33.021-28.117c0.195-0.503,0.415-1.095,0.639-1.672
		h24.295c0.238,0.577,0.451,1.168,0.646,1.672c3.156,8.405,10.56,28.117,33.027,28.117h38.275c9.461,0,18.214-4.514,24.019-12.357
		C920.549,312.127,922.46,299.417,918.822,287.475"/>
	<path fill="#ED1C2E" d="M246.53,122.82c3.61-11.289,9.98-14.737,15.219-14.737h50.401c6.703,0.504,14.725,7.384,15.871,14.737
		l21.427,171.64c1.887,13.731-3.107,19.635-9.33,19.635h-39.422c-6.384,0-13.916-9.173-14.9-15.063l-9.16-68.558l-19.629,69.549
		c-2.457,8.849-6.223,14.072-12.756,14.072H204.83c-6.548,0-10.306-5.223-12.763-14.072l-19.637-69.549l-9.168,68.558
		c-0.977,5.89-8.5,15.063-14.879,15.063h-39.436c-6.223,0-11.209-5.904-9.329-19.635l21.442-171.64
		c1.138-7.353,9.158-14.233,15.863-14.737h50.4c5.23,0,11.615,3.449,15.204,14.737l22.094,75.426"/>
	<path fill="#ED1C2E" d="M384.319,108.083c-12.601,0-18.985,11.63-18.985,19.001v167.702c0,8.671,9.825,19.31,19.962,19.31h99.965
		c9.664,0,12.602-8.02,12.602-12.28v-31.253c0-6.215-6.379-12.43-11.941-12.43h-53.502c-4.75,0-7.858-4.262-7.858-6.052v-8.347
		c0-3.449,4.101-6.229,6.874-6.229h36.322c5.889,0,8.679-4.573,8.679-8.006v-35.989c0-4.26-4.093-8.67-8.347-8.67h-35.514
		c-4.729,0-7.852-3.449-7.852-6.067v-8.495c0-3.286,3.759-6.054,7.852-6.054h44.51c6.216,0,12.113-7.693,12.113-15.063
		l-0.008-27.982c0-6.378-7.843-13.096-12.105-13.096"/>
	<path fill="#ED1C2E" d="M614.202,99.604c-59.73,0-114.023,48.403-114.023,114.564c0,53.938,45.474,111.708,114.451,111.708
		c58.905,0,98.176-55.641,98.176-87.87c0,0-0.436-11.171-0.436-21.221c0-13.524-5.899-26.175-21.385-26.175h-79.842
		c-10.473,0-18.035,8.951-18.035,16.586v22.257c0,7.843,7.995,15.479,19.348,15.479l33.271-0.06
		c-3.876,5.4-12.77,15.064-31.525,15.064c-23.566,0-44.673-19.149-44.673-46.643c0-28.943,20.862-44.941,44.673-44.941
		c20.508,0,27.606,8.954,31.852,12.993c4.706,4.469,11.252,5.446,19.645,1.155l32.057-20.94c5.242-4.808,5.063-13.585,2.68-18.215
		C697.755,138.153,678.83,99.604,614.202,99.604"/>
	<path fill="#ED1C2E" d="M802.185,191.868l-12.106,37.305c-1.136,3.107,0.824,7.857,6.396,7.857h18.97
		c5.561,0,7.523-4.75,6.385-7.857l-12.113-37.305c-0.488-1.953-0.977-4.099-3.756-4.099
		C803.177,187.769,802.683,189.915,802.185,191.868 M829.196,108.083c8.008,0,17.011,5.106,19.623,13.584l51.563,171.49
		c3.253,10.625-1.983,20.938-10.337,20.938h-38.272c-17.347,0-11.95-29.787-27.829-29.787h-35.99
		c-15.875,0-10.462,29.787-27.809,29.787h-38.291c-8.347,0-13.577-10.313-10.336-20.938l51.575-171.49
		c2.612-8.478,11.603-13.584,19.623-13.584C790.575,108.083,821.341,108.083,829.196,108.083z"/>
	<path fill="#ED1C2E" d="M183.477,526.324h-21.598c-2.292,0-4.587,1.483-4.587,3.774v21.086c0,2.148,1.636,3.79,4.426,3.79h20.125
		C193.621,553.333,192.645,528.454,183.477,526.324 M177.254,457.959h-15.375c-2.292,0-4.587,1.465-4.587,3.745v17.847
		c0,2.112,1.636,3.757,4.426,3.757h13.902C187.894,482.494,186.585,459.098,177.254,457.959z M201.472,406.729
		c19.148,0,43.038,29.627,43.038,57.271c0,26.514-11.127,38.117-17.024,42.216c4.426,2.621,21.761,14.398,21.761,43.521
		c0,33.546-25.519,62.993-47.774,62.993H126.21c-14.894,0-26.998-10.966-26.998-25.364V435.379c0-13.587,10.484-28.65,27.813-28.65
		H201.472z"/>
	<path fill="#ED1C2E" d="M279.307,406.729c-9.604,0-18.985,3.033-18.985,16.797V590c0,12.845,10.041,22.672,18.985,22.672h84.207
		c7.636,0,14.835-10.907,14.835-20.068v-27.509c0-10.004-7.422-18.067-16.367-18.067h-30.327c-4.358,0-7.191-2.648-7.191-5.268
		V422.446c0-5.683-1.532-15.717-17.019-15.717"/>
	<path fill="#ED1C2E" d="M480.659,468.083c-20.339,0-35.07,20.789-35.07,41.401c0,20.614,12.979,41.7,35.07,41.7
		c21.043,0,34.463-20.747,34.463-41.7C515.122,487.053,498.935,468.083,480.659,468.083 M578.337,509.484
		c0,57.148-38.996,110.394-97.678,110.335c-64.363-0.061-98.582-61.695-98.582-110.335c0-63.051,46.664-110.006,98.582-110.006
		C532.585,399.478,578.337,446.653,578.337,509.484z"/>
	<path fill="#ED1C2E" d="M601.519,406.729c-8.02,0-11.45,8.021-11.45,13.44v177.673c0.159,7.371,3.431,14.888,14.893,14.888h35.166
		c7.199,0,13.739-3.775,13.739-14.399v-48.594c0-3.448,3.617-4.736,5.57-0.83l22.906,50.728c2.124,3.937,6.708,13.096,16.205,13.096
		h40.406c4.748,0,12.757-7.694,8.508-16.855l-37.949-84.096c-1.803-3.271-3.286-6.879-0.656-11.792l35.173-70.351
		c6.223-13.093,1.798-23.084-6.052-22.907h-40.906c-4.742,0-10.804,2.796-13.099,7.532l-29.768,62.995v-53.821
		c0-6.892-2.454-16.706-11.133-16.706"/>
	<path fill="#ED1C2E" d="M889.979,413.922c-8.677-7.844-27.494-14.887-46.8-14.887c-41.884,0-80.986,32.242-80.986,71.342
		c0,55.623,60.051,63.479,68.053,68.232c7.935,4.688,6.22,16.01-8.661,16.688c-7.043,0.33-21.006-3.491-30.609-8.179
		c-8.008-3.925-16.676-2.622-19.459,3.253l-11.615,29.121c-2.621,7.709,0.879,18.988,6.702,23.572
		c6.223,4.913,18.823,16.87,64.302,16.87c37.314,0,69.874-31.577,69.874-77.083c0-32.063-22.098-48.255-45.981-56.275
		c-21.836-7.324-30.918-11.615-30.918-18.494c0-8.008,7.85-11.944,17.829-11.944c12.104,0,21.234,4.943,22.906,6.378
		c3.604,3.125,13.09,4.59,16.688-4.718l11.133-28.65C894.877,422.446,892.723,416.44,889.979,413.922"/>
	<path fill="#FFFFFF" d="M913.249,129.362v-12.341h1.929l2.021,0.133c1.407,0.088,2.45,0.267,3.138,0.563
		c1.251,0.475,2.117,1.332,2.569,2.559c0.28,0.727,0.482,2.161,0.567,4.264c0.062,2.1,0.263,3.699,0.534,4.823h8.658l-0.299-0.977
		c-0.141-0.355-0.208-0.696-0.244-1.036c-0.043-0.354-0.073-0.681-0.073-1.021v-3.122c0-3.551-1.014-6.157-3.046-7.83
		c-1.117-0.902-2.762-1.567-4.95-2.026c2.404-0.25,4.4-1.035,6.043-2.353c1.642-1.331,2.456-3.462,2.456-6.392
		c0-3.847-1.553-6.63-4.666-8.345c-1.831-0.992-4.114-1.599-6.897-1.791c-0.481-0.031-2.871-0.06-7.214-0.073
		c-4.315,0-7.575-0.031-9.724-0.031v34.997 M923.583,105.196c0,1.939-0.593,3.345-1.782,4.204c-1.203,0.844-2.869,1.287-4.999,1.287
		h-3.553v-10.21h2.234c2.258,0,4.04,0.252,5.292,0.74C922.643,101.957,923.583,103.289,923.583,105.196z M949.486,111.871
		c0-8.716-3.082-16.16-9.271-22.315c-6.158-6.171-13.58-9.247-22.296-9.247c-8.311,0-15.534,2.855-21.717,8.566
		c-6.55,6.098-9.833,13.762-9.833,22.996c0,8.865,3.045,16.352,9.112,22.434c6.092,6.067,13.563,9.116,22.438,9.116
		c8.605,0,15.948-2.975,22.101-8.908C946.313,128.385,949.486,120.838,949.486,111.871z M917.977,85.665
		c7.139,0,13.242,2.634,18.351,7.901c5.017,5.165,7.553,11.261,7.553,18.305c0,7.222-2.536,13.422-7.59,18.601
		c-5.078,5.15-11.175,7.724-18.313,7.724c-7.184,0-13.281-2.559-18.381-7.678c-5.072-5.121-7.617-11.35-7.617-18.646
		c0-7.073,2.478-13.169,7.525-18.305C904.576,88.298,910.74,85.665,917.977,85.665z"/>
</g>
</svg>
